<?xml version="1.0" standalone="no"?>
<!DOCTYPE svg PUBLIC "-//W3C//DTD SVG 20010904//EN"
 "http://www.w3.org/TR/2001/REC-SVG-20010904/DTD/svg10.dtd">
<svg version="1.0" xmlns="http://www.w3.org/2000/svg"
 width="153.000000pt" height="153.000000pt" viewBox="0 0 153.000000 153.000000"
 preserveAspectRatio="xMidYMid meet">
<metadata>
Created by potrace 1.11, written by Peter Selinger 2001-2013
</metadata>
<g transform="translate(0.000000,153.000000) scale(0.100000,-0.100000)"
fill="#000000" stroke="none">
<path d="M930 1516 c-140 -39 -254 -151 -289 -283 -7 -24 -14 -43 -17 -43 -43
0 -274 -45 -295 -57 -33 -19 -52 -67 -45 -109 3 -16 8 -49 11 -74 3 -25 10
-72 15 -105 6 -33 10 -63 10 -67 0 -4 -12 -14 -27 -22 -49 -25 -123 -109 -156
-176 -30 -60 -32 -72 -32 -170 0 -98 2 -110 32 -170 97 -199 333 -286 529
-196 105 48 174 123 214 233 l22 61 56 7 c32 4 66 8 77 11 11 2 45 6 75 10 80
9 117 27 136 68 17 35 15 65 -22 296 -5 33 -2 37 49 77 248 189 191 584 -100
693 -69 26 -180 33 -243 16z m222 -169 c104 -61 152 -171 125 -282 -11 -42
-44 -102 -69 -123 -13 -10 -17 -1 -27 71 -6 45 -14 98 -17 117 -16 112 -60
136 -204 111 -36 -6 -89 -14 -119 -17 l-53 -7 12 24 c27 52 105 118 148 125 8
1 17 6 20 9 4 4 37 5 74 2 47 -3 79 -12 110 -30z m-130 -273 c4 -16 10 -49 12
-74 3 -25 8 -64 12 -87 l7 -43 -39 0 c-48 0 -132 38 -169 76 -15 16 -36 49
-47 73 -22 48 -16 61 30 61 12 0 23 1 25 2 6 4 143 26 151 24 6 -1 13 -16 18
-32z m-381 -62 c56 -175 208 -288 390 -291 l47 -1 8 -57 c4 -32 8 -80 8 -108
l1 -49 -40 -8 c-22 -4 -66 -10 -97 -13 -56 -6 -58 -5 -64 22 -15 61 -61 139
-110 189 -76 75 -172 115 -284 118 -39 1 -41 7 -55 143 -7 70 -14 64 90 81 94
15 92 15 106 -26z m-24 -374 c55 -28 105 -84 123 -138 7 -22 11 -42 9 -44 -3
-3 -27 -8 -54 -11 -28 -4 -66 -10 -85 -14 -19 -4 -46 -7 -60 -7 -25 1 -32 19
-44 108 -2 18 -7 56 -11 85 l-7 52 42 -4 c23 -3 62 -15 87 -27z m-253 -153
c22 -138 32 -170 59 -188 37 -23 61 -25 148 -11 184 28 172 30 139 -23 -23
-39 -83 -80 -142 -97 -189 -56 -372 134 -309 321 18 54 70 128 81 116 4 -4 15
-57 24 -118z"/>
</g>
</svg>
